<svg width="158" height="48" viewBox="0 0 158 48" fill="none" xmlns="http://www.w3.org/2000/svg">
<path fill-rule="evenodd" clip-rule="evenodd" d="M133.491 8.20445H127.938C127.819 8.20445 127.722 8.29996 127.722 8.41777V37.954C127.722 38.0718 127.819 38.1673 127.938 38.1673H133.491C133.61 38.1673 133.707 38.0718 133.707 37.954V8.41777C133.707 8.29996 133.61 8.20445 133.491 8.20445ZM96.1184 8.56549C95.1754 8.50695 94.2472 8.81933 93.5369 9.43431C92.8265 10.0493 92.3918 10.9168 92.3277 11.8473C92.396 12.7761 92.832 13.6411 93.5413 14.2553C94.2507 14.8694 95.1765 15.1833 96.1184 15.1291C96.5859 15.1603 97.055 15.1 97.4988 14.9518C97.9426 14.8036 98.3523 14.5703 98.7045 14.2654C99.0567 13.9604 99.3445 13.5899 99.5512 13.1749C99.7579 12.7599 99.8795 12.3088 99.9091 11.8473C99.8817 11.3851 99.7615 10.9328 99.5555 10.5168C99.3495 10.1008 99.0618 9.72935 98.7091 9.42402C98.3565 9.11868 97.9458 8.88556 97.5011 8.73817C97.0563 8.59079 96.5864 8.53209 96.1184 8.56549ZM56.9145 25.9261L67.0397 14.2922C67.0636 14.2583 67.0779 14.2186 67.0809 14.1774C67.0839 14.1362 67.0757 14.095 67.0569 14.058C67.0382 14.021 67.0098 13.9898 66.9745 13.9674C66.9393 13.9451 66.8986 13.9326 66.8568 13.9312H59.9072C59.8811 13.9194 59.8528 13.9133 59.8241 13.9133C59.7954 13.9133 59.767 13.9194 59.7409 13.9312L53.5894 21.266V14.0624C53.5894 14.0059 53.5666 13.9516 53.5261 13.9116C53.4856 13.8716 53.4306 13.8491 53.3732 13.8491H47.7703C47.713 13.8491 47.6581 13.8716 47.6175 13.9116C47.577 13.9516 47.5542 14.0059 47.5542 14.0624V37.8555C47.5542 37.912 47.577 37.9663 47.6175 38.0063C47.6581 38.0463 47.713 38.0688 47.7703 38.0688H53.4564C53.5137 38.0688 53.5687 38.0463 53.6092 38.0063C53.6497 37.9663 53.6725 37.912 53.6725 37.8555V30.2745L61.5532 38.0031C61.5795 38.014 61.6077 38.0195 61.6363 38.0195C61.6648 38.0195 61.6931 38.014 61.7194 38.0031H69.3507C69.3961 38.0056 69.4412 37.9939 69.4795 37.9696C69.5177 37.9453 69.5473 37.9097 69.5639 37.8679C69.5804 37.8261 69.5832 37.7801 69.5718 37.7366C69.5604 37.6932 69.5354 37.6544 69.5003 37.6257L56.9145 25.9261ZM90.3314 18.6241H84.795C84.7653 18.6218 84.7354 18.6257 84.7072 18.6354C84.679 18.6451 84.6532 18.6604 84.6313 18.6805C84.6095 18.7005 84.592 18.7248 84.5802 18.7518C84.5683 18.7788 84.5622 18.808 84.5623 18.8374V20.8557C82.6326 19.0941 80.0914 18.1308 77.4631 18.1646C76.1051 18.1348 74.7552 18.3789 73.4962 18.8821C72.2372 19.3854 71.0956 20.1371 70.1414 21.0911C69.1872 22.0452 68.4404 23.1816 67.9469 24.4306C67.4534 25.6796 67.2235 27.0148 67.2714 28.3546C67.2401 29.6894 67.4814 31.0167 67.981 32.2575C68.4806 33.4982 69.2283 34.6269 70.1794 35.5764C71.1305 36.5258 72.2656 37.2765 73.5169 37.7836C74.7683 38.2907 76.1104 38.544 77.4631 38.5282C80.0875 38.5743 82.6293 37.6225 84.5623 35.8699V37.9375C84.5622 37.9669 84.5683 37.9961 84.5802 38.0231C84.592 38.0501 84.6095 38.0744 84.6313 38.0944C84.6532 38.1145 84.679 38.1298 84.7072 38.1395C84.7354 38.1492 84.7653 38.1531 84.795 38.1508H90.3314C90.3612 38.1531 90.3911 38.1492 90.4193 38.1395C90.4474 38.1298 90.4733 38.1145 90.4951 38.0944C90.517 38.0744 90.5344 38.0501 90.5463 38.0231C90.5582 37.9961 90.5643 37.9669 90.5642 37.9375V18.8374C90.5643 18.808 90.5582 18.7788 90.5463 18.7518C90.5344 18.7248 90.517 18.7005 90.4951 18.6805C90.4733 18.6604 90.4474 18.6451 90.4193 18.6354C90.3911 18.6257 90.3612 18.6218 90.3314 18.6241ZM78.8596 33.3922C78.1586 33.4185 77.4593 33.3082 76.8015 33.0676C76.1438 32.827 75.5406 32.4607 75.0264 31.9898C74.5122 31.5189 74.0971 30.9525 73.8048 30.3231C73.5126 29.6938 73.3489 29.0137 73.3232 28.3218C73.3444 27.63 73.5053 26.9493 73.7965 26.3196C74.0876 25.6899 74.5032 25.1239 75.0188 24.6548C75.5344 24.1856 76.1397 23.8227 76.7992 23.5874C77.4588 23.352 78.1592 23.249 78.8596 23.2842C80.2681 23.231 81.6405 23.7315 82.6754 24.676C83.7103 25.6205 84.3232 26.9318 84.3794 28.3218C84.3623 29.0164 84.2053 29.7007 83.9175 30.3348C83.6297 30.9689 83.2169 31.5401 82.7031 32.0151C82.1894 32.4901 81.5849 32.8594 80.925 33.1015C80.2651 33.3436 79.563 33.4535 78.8596 33.425V33.3922ZM93.3759 18.6405H98.9289C99.0483 18.6405 99.1451 18.736 99.1451 18.8538V37.9539C99.1451 38.0717 99.0483 38.1672 98.9289 38.1672H93.3759C93.2565 38.1672 93.1598 38.0717 93.1598 37.9539V18.8538C93.1598 18.736 93.2565 18.6405 93.3759 18.6405ZM119.408 18.6242H124.944C124.975 18.6242 125.005 18.6301 125.033 18.6417C125.062 18.6532 125.087 18.6702 125.109 18.6915C125.131 18.7128 125.148 18.7382 125.159 18.766C125.171 18.7939 125.177 18.8238 125.177 18.8539V35.4763C125.177 44.0253 120.472 47.9963 112.924 47.9963C110.849 48.0487 108.798 47.5435 106.991 46.5348C105.185 45.5262 103.689 44.0519 102.666 42.2696C102.652 42.2417 102.644 42.2113 102.642 42.1803C102.641 42.1493 102.646 42.1183 102.656 42.0891C102.667 42.06 102.684 42.0333 102.706 42.0107C102.727 41.9882 102.753 41.9702 102.782 41.9578L107.354 40.1528C107.401 40.1333 107.454 40.1309 107.502 40.1459C107.551 40.1609 107.593 40.1924 107.62 40.2349C108.186 41.1165 108.969 41.8413 109.897 42.3409C110.825 42.8404 111.867 43.0983 112.924 43.09C116.765 43.09 119.192 41.1702 119.192 36.0506V35.7716C118.301 36.6731 117.232 37.3833 116.05 37.8576C114.869 38.332 113.601 38.5604 112.325 38.5283C110.953 38.5707 109.586 38.3377 108.308 37.8433C107.03 37.3489 105.866 36.6036 104.889 35.6523C103.911 34.7011 103.139 33.5638 102.62 32.3094C102.1 31.055 101.845 29.7096 101.868 28.3547C101.845 26.9991 102.1 25.653 102.619 24.3978C103.139 23.1425 103.91 22.0042 104.888 21.0517C105.865 20.0991 107.028 19.3522 108.307 18.856C109.585 18.3598 110.952 18.1246 112.325 18.1648C113.603 18.1278 114.874 18.3555 116.056 18.8331C117.239 19.3108 118.307 20.0278 119.192 20.9379V18.8539C119.19 18.8246 119.193 18.7951 119.203 18.7673C119.213 18.7395 119.229 18.714 119.249 18.6924C119.269 18.6708 119.294 18.6536 119.321 18.6419C119.349 18.6301 119.378 18.6241 119.408 18.6242ZM109.644 31.9849C110.682 32.9351 112.058 33.4411 113.473 33.3923L113.439 33.4251C114.146 33.4581 114.853 33.3516 115.518 33.1117C116.182 32.8719 116.792 32.5036 117.31 32.0283C117.829 31.5531 118.246 30.9805 118.538 30.3441C118.83 29.7076 118.99 29.0202 119.009 28.3219C118.948 26.9304 118.332 25.6192 117.294 24.6751C116.257 23.7311 114.883 23.231 113.473 23.2844C112.773 23.2514 112.073 23.356 111.415 23.5921C110.756 23.8283 110.152 24.1913 109.637 24.66C109.121 25.1288 108.706 25.6939 108.414 26.3225C108.122 26.9512 107.96 27.6308 107.936 28.3219C107.992 29.7178 108.607 31.0348 109.644 31.9849ZM139.375 21.1328C141.311 19.2218 143.937 18.1482 146.675 18.1482C149.414 18.1482 152.04 19.2218 153.976 21.1328C155.912 23.0438 157 25.6356 157 28.3382C157 31.0407 155.912 33.6326 153.976 35.5436C152.04 37.4546 149.414 38.5282 146.675 38.5282C143.937 38.5282 141.311 37.4546 139.375 35.5436C137.439 33.6326 136.351 31.0407 136.351 28.3382C136.351 25.6356 137.439 23.0438 139.375 21.1328ZM143.478 31.4941C144.326 32.3312 145.476 32.8014 146.675 32.8014C147.875 32.8014 149.025 32.3312 149.873 31.4941C150.721 30.6571 151.198 29.5219 151.198 28.3382C151.198 27.1544 150.721 26.0192 149.873 25.1822C149.025 24.3452 147.875 23.8749 146.675 23.8749C145.476 23.8749 144.326 24.3452 143.478 25.1822C142.63 26.0192 142.153 27.1544 142.153 28.3382C142.153 29.5219 142.63 30.6571 143.478 31.4941Z" fill="#151716"/>
<path d="M37.2351 13.9313H32.1476L20.5096 25.3355L31.9814 36.6741H25.331C24.2205 36.6725 23.1561 36.2357 22.3717 35.4599L16.27 29.4378L14.491 27.682V34.6066C14.491 35.1549 14.2703 35.6808 13.8775 36.0686C13.4846 36.4563 12.9517 36.6741 12.3962 36.6741H8.60547V39.1519C8.60986 39.9716 8.94287 40.7562 9.53169 41.3342C10.1205 41.9123 10.9172 42.2368 11.7477 42.2368H37.2185C38.049 42.2368 38.8458 41.9123 39.4346 41.3342C40.0234 40.7562 40.3564 39.9716 40.3608 39.1519V17.0326C40.3608 16.2129 40.032 15.4265 39.4463 14.8454C38.8606 14.2643 38.0656 13.9356 37.2351 13.9313Z" fill="#F3CF1C"/>
<path d="M8.61901 36.6741V13.7015H12.4097C12.6854 13.6993 12.9588 13.7513 13.214 13.8544C13.4691 13.9576 13.7009 14.1098 13.8959 14.3022C14.0909 14.4946 14.2451 14.7234 14.3496 14.9752C14.4541 15.2271 14.5068 15.4969 14.5045 15.7691V22.9234L16.2835 21.1676L22.4517 15.0799C22.8409 14.6979 23.3027 14.3955 23.8105 14.19C24.3183 13.9844 24.8622 13.8798 25.4111 13.882H32.1446L31.8619 9.99308C31.82 9.47366 31.5809 8.98899 31.1925 8.63607C30.8041 8.28314 30.295 8.08799 29.767 8.08963H24.3304V6.80973C24.326 5.00501 23.5977 3.27544 22.3047 1.99931C21.0117 0.723173 19.2593 0.00433308 17.4307 0C15.5992 -5.22247e-06 13.8425 0.716921 12.546 1.99352C11.2494 3.27013 10.5188 5.00217 10.5144 6.80973V8.20451H4.76181C4.23386 8.20286 3.72474 8.39802 3.33632 8.75094C2.94791 9.10386 2.70886 9.58851 2.66696 10.1079L1.00438 33.4087C0.981861 33.8304 1.04635 34.2521 1.19394 34.6484C1.34153 35.0447 1.56914 35.4073 1.86297 35.7142C2.1568 36.0211 2.51072 36.2658 2.90328 36.4337C3.29583 36.6015 3.71886 36.6889 4.14666 36.6905L8.61901 36.6741ZM12.6092 6.80973C12.6092 6.1856 12.734 5.56759 12.9765 4.99116C13.2191 4.41474 13.5744 3.89125 14.0224 3.45068C14.4703 3.01011 15.002 2.66114 15.5868 2.42379C16.1717 2.18644 16.7983 2.06538 17.4307 2.06754C18.705 2.06754 19.9272 2.56715 20.8282 3.45649C21.7293 4.34582 22.2355 5.55202 22.2355 6.80973V8.20451H12.6092V6.80973Z" fill="#007A49"/>
</svg>
